<svg xmlns="http://www.w3.org/2000/svg" viewBox="0 0 160 160" role="img" aria-label="Feishu logo">
  <rect width="160" height="160" rx="32" fill="#fff"/>
  <path d="M38 49c0-6.1 6.8-9.8 12-6.5l47.5 30.2c5 3.2 5 10.5 0 13.7L50 116.5c-5.2 3.3-12-.4-12-6.5V49z" fill="#3368ff"/>
  <path d="M72.3 35.9c3.1-4.6 9.9-4.8 13.2-.3l36.8 49.7c3.8 5.1.1 12.4-6.3 12.4H76c-6.3 0-10-7-6.6-12.2l2.9-4.3-24.1-15.3 24.1-30z" fill="#11d3bf"/>
  <path d="M72.2 81.3c10.8-13.7 24.8-21.3 42.3-21.3h11.1c6.8 0 10.4 8 6 13.2l-34.4 40.6c-2 2.4-5 3.8-8.1 3.8-18.4 0-35.8-6.4-49.6-18l32.7-18.3z" fill="#173aa8"/>
</svg>
